<?xml version="1.0" standalone="no"?>
<!DOCTYPE svg PUBLIC "-//W3C//DTD SVG 20010904//EN"
 "http://www.w3.org/TR/2001/REC-SVG-20010904/DTD/svg10.dtd">
<svg version="1.0" xmlns="http://www.w3.org/2000/svg"
 width="550.000000pt" height="496.000000pt" viewBox="0 0 550.000000 496.000000"
 preserveAspectRatio="xMidYMid meet">

<g transform="translate(0.000000,496.000000) scale(0.100000,-0.100000)"
fill="#000000" stroke="none">
<path d="M3642 4098 c-9 -9 -12 -75 -12 -235 l0 -223 -160 0 c-184 0 -179 3
-198 -105 -44 -240 -97 -497 -100 -480 -22 128 -116 563 -124 573 -8 9 -57 12
-184 12 -144 0 -175 -3 -188 -16 -9 -8 -16 -18 -16 -22 0 -4 15 -61 34 -127
19 -66 68 -244 111 -395 42 -151 99 -354 126 -450 27 -97 49 -187 49 -202 0
-40 -27 -96 -56 -114 -22 -15 -32 -16 -82 -5 -31 7 -73 13 -92 14 l-35 2 -3
-67 -3 -68 -1229 0 -1230 0 0 -560 0 -560 1780 0 1780 0 0 560 0 560 -249 0
-248 0 19 68 c10 37 32 121 48 187 48 200 260 1057 271 1098 l10 37 54 0 c43
0 55 -3 55 -15 0 -36 -31 -85 -84 -131 -31 -27 -56 -57 -56 -66 0 -22 67 -207
81 -225 21 -24 54 -14 115 36 79 64 147 165 175 261 20 68 23 103 27 358 3
211 1 287 -8 297 -16 20 -359 22 -378 3z m346 -295 c-5 -293 -16 -362 -71
-456 -47 -80 -172 -193 -182 -165 -3 7 -18 51 -33 97 l-28 84 49 46 c55 51 97
128 97 179 l0 32 -75 0 -75 0 0 225 0 225 161 0 161 0 -4 -267z m-961 -245 c5
-24 41 -195 79 -380 38 -185 72 -334 75 -330 3 4 25 111 49 237 24 127 55 293
69 370 l27 140 147 3 c81 1 147 0 147 -2 0 -13 -323 -1308 -340 -1362 -47
-153 -104 -226 -201 -257 -60 -20 -114 -21 -225 -6 l-82 12 -6 46 c-3 25 -9
94 -12 153 l-7 107 48 -15 c27 -7 68 -14 93 -14 36 0 50 6 76 33 18 17 41 55
50 84 l17 51 -71 254 c-39 139 -84 300 -100 358 -119 422 -150 535 -150 547 0
10 33 13 154 13 l154 0 9 -42z m559 -1955 l1 -413 -27 0 c-23 0 -32 9 -58 63
-53 106 -149 199 -260 250 -44 21 -64 22 -337 25 -181 1 -298 7 -311 13 -22
11 -57 73 -47 83 4 3 85 6 182 6 97 0 239 5 316 10 136 9 142 11 225 52 110
55 189 133 236 231 19 39 34 78 34 85 0 8 9 12 23 10 l22 -3 1 -412z m-1806
218 c5 -11 10 -32 10 -47 0 -26 -1 -26 -18 -11 -44 40 -72 8 -91 -104 -20
-119 -9 -327 21 -386 14 -28 36 -37 54 -22 21 17 20 209 -1 209 -10 0 -15 10
-15 30 0 25 4 30 25 30 l25 0 0 -143 c0 -113 -3 -147 -16 -165 -20 -29 -60
-29 -75 0 -68 127 -59 521 14 616 15 19 55 14 67 -7z m308 -303 l-2 -323 -6
225 c-3 124 -8 218 -12 210 -6 -13 -16 -85 -47 -357 -6 -56 -21 -99 -21 -62 0
8 -4 50 -10 94 -5 44 -16 138 -25 209 -8 71 -17 132 -20 134 -3 3 -5 -97 -5
-221 0 -145 -4 -227 -10 -227 -6 0 -10 112 -10 316 0 245 3 315 12 312 11 -4
35 -164 63 -427 8 -78 20 -64 29 34 3 39 15 140 27 225 35 266 39 251 37 -142z
m298 110 c-17 -115 -26 -217 -26 -301 0 -78 -4 -127 -10 -127 -6 0 -10 46 -10
117 0 98 -33 390 -55 491 -4 15 -1 22 10 22 9 0 15 -9 15 -22 -1 -48 34 -268
42 -268 4 0 8 12 8 26 0 35 30 245 37 264 17 40 12 -43 -11 -202z m70 175 c-3
-21 -6 -64 -6 -95 0 -32 -4 -58 -10 -58 -12 0 -13 41 -4 129 4 33 11 61 17 61
6 0 7 -15 3 -37z m125 -5 c7 -42 6 -43 -20 -26 -36 22 -51 -5 -51 -89 0 -65 4
-83 38 -151 35 -73 37 -82 37 -177 0 -141 -20 -182 -79 -159 -11 4 -16 19 -16
47 l0 41 20 -22 c69 -73 84 102 21 231 -28 57 -34 84 -39 156 -6 121 18 195
62 189 15 -2 22 -13 27 -40z m-1125 -3 c17 -41 19 -178 3 -223 -8 -23 -7 -41
5 -77 20 -58 20 -176 1 -243 -15 -50 -17 -52 -50 -52 l-35 0 0 315 0 315 31 0
c25 0 32 -6 45 -35z m85 -102 l1 -138 35 135 c19 74 36 137 39 139 15 16 10
-24 -22 -157 l-37 -151 37 -148 c37 -152 43 -195 27 -177 -5 5 -24 70 -41 144
-17 74 -34 137 -36 139 -2 2 -4 -59 -4 -137 0 -88 -4 -142 -10 -142 -6 0 -10
112 -10 315 0 203 4 315 10 315 6 0 10 -53 11 -137z m673 80 c15 -129 56 -530
56 -550 0 -13 -4 -23 -9 -23 -4 0 -11 37 -15 82 -4 46 -11 87 -15 91 -5 5 -21
7 -37 5 -33 -3 -41 -25 -43 -120 0 -32 -5 -58 -11 -58 -13 0 -13 60 0 169 5
47 17 151 25 231 9 80 18 154 20 165 2 11 4 30 4 43 2 44 18 21 25 -35z
m-1674 -203 l0 -140 -50 0 -50 0 0 140 0 140 50 0 50 0 0 -140z m118 8 l3
-118 -46 0 -45 0 0 113 c0 63 3 117 7 121 4 4 23 6 43 4 l35 -3 3 -117z m144
72 c63 -17 103 -20 305 -20 l233 0 0 -50 0 -50 -235 0 c-226 0 -237 -1 -301
-25 -36 -14 -70 -25 -75 -25 -5 0 -9 43 -9 95 0 52 2 95 5 95 3 0 38 -9 77
-20z"/>
<path d="M1397 1763 c-11 -10 -8 -186 3 -203 9 -13 13 -12 30 9 16 19 20 38
20 100 0 75 -9 101 -35 101 -7 0 -15 -3 -18 -7z"/>
<path d="M1397 1493 c-4 -3 -7 -57 -7 -120 0 -94 3 -115 16 -120 33 -12 49 23
52 116 4 80 2 91 -17 110 -22 22 -33 26 -44 14z"/>
<path d="M2187 1633 c-3 -38 -9 -96 -13 -130 l-7 -63 33 0 c31 0 32 1 27 33
-3 17 -9 76 -13 130 -3 53 -10 97 -14 97 -4 0 -10 -30 -13 -67z"/>
<path d="M367 4062 c-16 -17 -17 -89 -17 -823 0 -712 2 -807 16 -827 15 -21
21 -22 168 -22 116 0 156 3 165 13 7 9 12 127 13 370 l3 357 62 -361 c40 -236
66 -365 75 -370 17 -11 279 -11 296 0 9 5 30 102 57 262 24 140 52 306 63 369
l20 115 1 -362 c1 -315 3 -364 17 -377 13 -13 42 -16 162 -16 81 0 154 5 162
10 13 8 15 112 18 821 2 717 1 815 -13 835 l-15 24 -235 0 c-232 0 -235 0
-248 -22 -8 -13 -28 -108 -46 -213 -88 -530 -91 -545 -104 -455 -28 190 -112
650 -123 668 -14 22 -17 22 -248 22 -213 0 -234 -2 -249 -18z m549 -502 c45
-261 83 -477 84 -480 1 -3 39 211 85 475 46 264 84 481 84 483 1 1 98 2 216 2
l215 0 0 -805 0 -805 -135 0 -135 0 -1 598 -1 597 -74 -430 c-41 -236 -87
-504 -102 -595 l-28 -165 -124 0 -124 0 -32 190 c-18 105 -64 375 -103 600
l-70 410 0 -602 -1 -603 -135 0 -135 0 0 805 0 805 217 -2 217 -3 82 -475z"/>
<path d="M2012 3650 c-150 -39 -227 -131 -266 -316 -19 -91 -13 -99 91 -117
182 -33 224 -39 238 -33 8 3 26 29 38 58 16 35 33 58 51 66 30 14 65 15 83 4
11 -7 33 -54 33 -72 0 -12 -125 -62 -258 -103 -175 -55 -243 -109 -288 -232
-28 -76 -25 -260 5 -337 52 -134 140 -199 277 -206 99 -5 170 13 243 63 59 41
61 41 61 17 0 -11 8 -26 18 -35 16 -14 43 -17 174 -17 191 0 191 0 163 98 -16
58 -19 122 -25 462 -7 410 -12 457 -56 541 -21 41 -79 104 -118 129 -82 50
-326 66 -464 30z m386 -45 c58 -18 124 -70 149 -118 55 -107 56 -115 63 -547
6 -337 10 -413 23 -455 9 -27 17 -51 17 -53 0 -1 -64 -1 -142 0 l-143 3 -16
64 -16 64 -29 -37 c-122 -154 -377 -169 -479 -27 -48 66 -69 140 -69 241 0
143 39 234 125 292 23 15 105 48 183 74 77 25 166 58 196 74 55 27 55 28 54
73 0 59 -24 94 -69 103 -83 15 -157 -28 -170 -99 -4 -21 -10 -37 -14 -37 -26
1 -273 49 -278 54 -10 9 16 115 41 172 24 53 82 116 128 140 88 46 327 56 446
19z"/>
<path d="M2193 2920 c-116 -55 -138 -79 -138 -151 0 -57 19 -94 56 -110 60
-24 142 18 180 94 27 53 41 217 18 216 -8 0 -60 -22 -116 -49z m78 -84 c-12
-65 -40 -110 -81 -131 -37 -19 -49 -19 -72 2 -20 18 -25 82 -7 115 12 23 150
90 162 78 5 -4 4 -33 -2 -64z"/>
<path d="M4320 3650 c-39 -12 -97 -19 -146 -20 l-82 0 0 -107 c-1 -60 -6 -124
-11 -143 -13 -43 -14 -182 -2 -230 5 -19 11 -107 13 -194 l3 -160 -25 -6 c-39
-9 -38 -68 0 -181 l32 -92 -4 -798 -3 -799 400 0 c389 0 403 1 509 25 122 28
178 56 231 117 51 58 117 202 146 318 22 86 24 116 24 310 0 190 -3 225 -23
304 -41 163 -118 283 -218 342 l-44 26 50 45 c121 109 191 358 175 623 -17
276 -117 488 -270 568 -45 23 -65 26 -205 33 -88 4 -181 13 -215 23 -84 22
-251 20 -335 -4z m302 -31 c123 -26 195 -101 243 -256 7 -24 10 -43 7 -43 -4
0 -65 -9 -137 -20 -157 -24 -145 -23 -145 -5 0 8 -13 29 -29 47 -27 30 -35 33
-86 33 -48 0 -60 -4 -76 -24 -11 -13 -19 -39 -19 -60 0 -59 28 -78 162 -106
197 -42 266 -83 320 -193 32 -64 33 -71 33 -187 0 -136 -18 -199 -78 -274 -66
-84 -145 -120 -283 -128 -162 -10 -286 26 -354 104 -39 44 -85 141 -95 200 -8
48 -26 40 168 68 132 18 127 18 127 0 0 -9 9 -34 21 -56 55 -109 229 -79 229
39 0 64 -34 85 -218 136 -167 47 -225 90 -274 207 -18 45 -22 73 -22 164 -1
99 2 116 27 170 30 64 84 127 129 151 78 41 240 56 350 33z m-50 -826 c22 -20
23 -42 2 -71 -24 -35 -34 -26 -34 33 0 59 4 64 32 38z m258 -754 c97 -22 135
-96 135 -264 0 -102 -2 -114 -30 -170 -45 -90 -67 -99 -247 -103 l-148 -4 0
276 0 276 123 0 c67 0 142 -5 167 -11z"/>
</g>
</svg>
